<svg width="40" height="43" viewBox="0 0 40 43" fill="none" xmlns="http://www.w3.org/2000/svg">
<path d="M24.6996 14.9909C26.9864 18.0614 30.6723 19.922 37.3971 21.2157C31.6474 22.5211 27.8435 23.824 25.2495 26.4737C22.6474 29.1316 21.322 33.0794 20.3086 39.4788C18.8639 33.0708 17.3264 29.1593 14.6499 26.5251C12.0079 23.9251 8.30793 22.6242 2.73032 21.2798C9.05442 20.2345 12.846 18.3752 15.3682 15.279C17.8825 12.1924 19.0788 7.92973 20.3942 2.27218C20.4356 2.4614 20.4767 2.64889 20.5173 2.83466C21.0058 5.06656 21.44 7.05057 21.9318 8.80102C22.6176 11.2417 23.4297 13.2858 24.6996 14.9909Z" fill="black" stroke="white"/>
</svg>
